<svg height="512pt" viewBox="0 -48 512 512" width="512pt" xmlns="http://www.w3.org/2000/svg"><path d="m80 272h32v16h-32zm0 0"/><path d="m187.070312 376.609375-34.542968-14.351563-8.304688-42.257812h191.777344c4.425781 0 8-3.574219 8-8v-304c0-4.425781-3.574219-8-8-8h-336v16h328v224h-328v16h328v48h-328v16h47.777344l-8.296875 42.257812-34.542969 14.351563c-2.992188 1.238281-4.9375 4.160156-4.9375 7.390625v24c0 4.425781 3.574219 8 8 8h176c4.425781 0 8-3.574219 8-8v-24c0-3.230469-1.945312-6.152344-4.929688-7.390625zm-11.070312 23.390625h-160v-10.664062l32.105469-13.335938h55.894531v-16h-47.777344l7.855469-40h63.84375l7.855469 40h-15.777344v16h23.894531l32.105469 13.335938zm0 0"/><path d="m248 272h16v16h-16zm0 0"/><path d="m280 272h16v16h-16zm0 0"/><path d="m312 216v-32h-16v24h-24v16h32c4.425781 0 8-3.574219 8-8zm0 0"/><path d="m504.054688 17-144-1-.109376 16 136.054688.945312v367.054688h-192v-64h-16v72c0 4.425781 3.574219 8 8 8h208c4.425781 0 8-3.574219 8-8v-383c0-4.398438-3.542969-7.96875-7.945312-8zm0 0"/><path d="m360 144h104c4.425781 0 8-3.574219 8-8v-64c0-4.425781-3.574219-8-8-8h-104v16h96v48h-96zm0 0"/><path d="m360 96h80v16h-80zm0 0"/><path d="m360 168h40v16h-40zm0 0"/><path d="m416 168h48v16h-48zm0 0"/><path d="m400 368c22.054688 0 40-17.945312 40-40s-17.945312-40-40-40-40 17.945312-40 40 17.945312 40 40 40zm0-64c13.230469 0 24 10.769531 24 24s-10.769531 24-24 24-24-10.769531-24-24 10.769531-24 24-24zm0 0"/><path d="m392 320h16v16h-16zm0 0"/><path d="m360 248v16h104c4.425781 0 8-3.574219 8-8v-40c0-4.425781-3.574219-8-8-8h-104v16h96v24zm0 0"/></svg>