<svg height="512pt" viewBox="0 -21 512 512" width="512pt" xmlns="http://www.w3.org/2000/svg"><path d="m497 410h-58.578125c-6.195313-17.460938-22.867187-30-42.421875-30s-36.226562 12.539062-42.421875 30h-55.15625c-4.527344-12.765625-14.65625-22.894531-27.421875-27.421875v-52.578125h135c57.898438 0 105-47.101562 105-105 0-26.117188-9.652344-51.148438-27.183594-70.484375-14.195312-15.660156-32.597656-26.5625-52.832031-31.507813-1.066406-68.011718-56.722656-123.007812-124.984375-123.007812-39.160156 0-75.15625 17.90625-98.746094 48.519531-13.03125-5.601562-27.066406-8.519531-41.253906-8.519531-57.898438 0-105 47.101562-105 105 0 6.140625.554688 12.269531 1.652344 18.34375-35.703125 10.210938-61.652344 43.199219-61.652344 81.65625 0 46.867188 38.132812 85 85 85h155v52.578125c-12.765625 4.527344-22.894531 14.65625-27.421875 27.421875h-55.15625c-6.195313-17.460938-22.867187-30-42.421875-30s-36.226562 12.539062-42.421875 30h-58.578125c-8.285156 0-15 6.714844-15 15s6.714844 15 15 15h58.578125c6.195313 17.460938 22.867187 30 42.421875 30s36.226562-12.539062 42.421875-30h55.15625c6.195313 17.460938 22.867187 30 42.421875 30s36.226562-12.539062 42.421875-30h55.15625c6.195313 17.460938 22.867187 30 42.421875 30s36.226562-12.539062 42.421875-30h58.578125c8.285156 0 15-6.714844 15-15s-6.714844-15-15-15zm-466-165c0-28.816406 22.539062-52.886719 51.3125-54.796875 4.691406-.3125 8.964844-2.804687 11.546875-6.738281s3.167969-8.847656 1.582031-13.273438c-2.945312-8.253906-4.441406-16.726562-4.441406-25.191406 0-41.355469 33.644531-75 75-75 13.464844 0 26.757812 3.699219 38.4375 10.703125l.132812-.03125c22.8125 13.710937 36.429688 37.75 36.429688 64.328125 0 8.285156 6.714844 15 15 15s15-6.714844 15-15c0-31.265625-14.21875-60.949219-37.910156-80.734375 17.929687-21.667969 44.308594-34.265625 72.910156-34.265625 52.382812 0 95 42.617188 95 95 0 2.828125-.152344 5.800781-.464844 9.089844-.003906.050781 0 .097656-.003906.148437-1.839844 18.730469-9.207031 36.640625-21.242188 51.210938-5.273437 6.386719-4.371093 15.839843 2.015626 21.117187 2.796874 2.308594 6.179687 3.433594 9.542968 3.433594 4.320313 0 8.609375-1.855469 11.574219-5.449219 12.363281-14.96875 20.996094-32.613281 25.339844-51.355469 31.148437 9.339844 53.238281 38.101563 53.238281 71.804688 0 41.355469-33.644531 75-75 75h-320c-30.328125 0-55-24.671875-55-55zm85 195c-8.269531 0-15-6.730469-15-15s6.730469-15 15-15 15 6.730469 15 15-6.730469 15-15 15zm140 0c-8.269531 0-15-6.730469-15-15s6.730469-15 15-15 15 6.730469 15 15-6.730469 15-15 15zm140 0c-8.269531 0-15-6.730469-15-15s6.730469-15 15-15 15 6.730469 15 15-6.730469 15-15 15zm0 0"/></svg>